@startuml
!theme vibrant
skinparam classFontSize 14
!define LIGHTORANGE
skinparam componentStyle uml2
skinparam wrapMessageWidth 1000
skinparam wrapWidth 1000
' skinparam ArrowColor #Maroon
' Remove shadows
skinparam shadowing false
'skinparam linetype polyline
skinparam ArrowMessageAlignment left
top to bottom direction


class "<b>Brand</b> (schema:Brand)" as schema_Brand [[../../events/fr#schema%3ABrand]]
class "<b>Chose</b> (schema:Thing)" as schema_Thing [[#schema%3AThing]]
class "<b>collection</b> (schema:Collection)" as schema_Collection [[#schema%3ACollection]]
class "<b>travail créatif</b> (schema:CreativeWork)" as schema_CreativeWork [[#schema%3ACreativeWork]]
class "<b>composant d'archive</b> (schema:ArchiveComponent)" as schema_ArchiveComponent [[#schema%3AArchiveComponent]]
class "<b>travail créatif</b> (schema:CreativeWork)" as schema_CreativeWork [[#schema%3ACreativeWork]]
class "<b>concept</b> (skos:Concept)" as skos_Concept [[../../terms/fr#skos%3AConcept]]
class "<b>entité intellectuelle</b> (premis:IntellectualEntity)" as premis_IntellectualEntity [[#premis%3AIntellectualEntity]]
class "<b>objet</b> (premis:Object)" as premis_Object [[#premis%3AObject]]
class "<b>fichier</b> (premis:File)" as premis_File [[#premis%3AFile]]
class "<b>objet</b> (premis:Object)" as premis_Object [[#premis%3AObject]]
class "<b>lieu</b> (schema:Place)" as schema_Place [[#schema%3APlace]]
class "<b>Chose</b> (schema:Thing)" as schema_Thing [[#schema%3AThing]]
class "<b>organisation</b> (org:Organization)" as org_Organization [[../../organization/fr#org%3AOrganization]]
class "<b>partenaire de contenus</b> (haOrg:ContentPartner)" as haOrg_ContentPartner [[../../organization/fr#haOrg%3AContentPartner]]
class "<b>organisation</b> (org:Organization)" as org_Organization [[#org%3AOrganization]]
class "<b>personne</b> (schema:Person)" as schema_Person [[../../organization/fr#schema%3APerson]]
class "<b>Chose</b> (schema:Thing)" as schema_Thing [[#schema%3AThing]]
class "<b>porteur physique</b> (haObj:PhysicalCarrier)" as haObj_PhysicalCarrier [[#haObj%3APhysicalCarrier]]
class "<b>emplacement de stockage</b> (premis:StorageLocation)" as premis_StorageLocation [[#premis%3AStorageLocation]]
class "<b>représentation de porteur</b> (haObj:CarrierRepresentation)" as haObj_CarrierRepresentation [[#haObj%3ACarrierRepresentation]]
class "<b>représentation</b> (premis:Representation)" as premis_Representation [[#premis%3ARepresentation]]
class "<b>représentation digitale</b> (haObj:DigitalRepresentation)" as haObj_DigitalRepresentation [[#haObj%3ADigitalRepresentation]]
class "<b>représentation</b> (premis:Representation)" as premis_Representation [[#premis%3ARepresentation]]
class "<b>rôle</b> (schema:Role)" as schema_Role [[#schema%3ARole]]
class "<b>Chose</b> (schema:Thing)" as schema_Thing [[#schema%3AThing]]
class "<b>série du travail créatif</b> (schema:CreativeWorkSeries)" as schema_CreativeWorkSeries [[#schema%3ACreativeWorkSeries]]
class "<b>travail créatif</b> (schema:CreativeWork)" as schema_CreativeWork [[#schema%3ACreativeWork]]
class "<b>valeur quantitative</b> (schema:QuantitativeValue)" as schema_QuantitativeValue [[#schema%3AQuantitativeValue]]
class "<b>Chose</b> (schema:Thing)" as schema_Thing [[#schema%3AThing]]
class "<b>épisode</b> (schema:Episode)" as schema_Episode [[#schema%3AEpisode]]
class "<b>travail créatif</b> (schema:CreativeWork)" as schema_CreativeWork [[#schema%3ACreativeWork]]




schema_Thing : description : <i>rdf:langString</i> [0..1]
schema_Thing : nom : <i>rdf:langString</i> [1..1]


schema_Collection --|> schema_CreativeWork #blue;line.dotted;text:blue

schema_Collection : description : <i>rdf:langString</i> [0..1]
schema_Collection : identifier : <i>xsd:string</i> [1..1]
schema_Collection : nom : <i>rdf:langString</i> [1..1]
schema_Collection : nombre d'éléments : <i>xsd:integer</i> [0..*]
schema_Collection --> premis_IntellectualEntity :fait partie de [0..*]  > 




schema_ArchiveComponent --|> schema_CreativeWork #blue;line.dotted;text:blue

schema_ArchiveComponent : description : <i>rdf:langString</i> [0..1]
schema_ArchiveComponent : nom : <i>rdf:langString</i> [1..1]
schema_ArchiveComponent --> premis_IntellectualEntity :fait partie de [0..*]  > 

schema_ArchiveComponent --> schema_ArchiveComponent :est partie de [0..*]  \lfait partie de [0..*]  > 



premis_IntellectualEntity --|> premis_Object #blue;line.dotted;text:blue

premis_IntellectualEntity : année de copyright : <i>xsd:integer</i> [0..*]
premis_IntellectualEntity : avis de copyright : <i>rdf:langString</i> [0..*]
premis_IntellectualEntity : date de création : <i>edtf:EDTF-level1</i> [1..1]
premis_IntellectualEntity : date de publication : <i>edtf:EDTF-level1</i> [0..1]
premis_IntellectualEntity : description : <i>rdf:langString</i> [0..1]
premis_IntellectualEntity : disponible le : <i>xsd:dateTime</i> [0..*]
premis_IntellectualEntity : en langue : <i>xsd:string</i> [1..*]
premis_IntellectualEntity : format : <i>xsd:string</i> [1..1]
premis_IntellectualEntity : forme d'art : <i>rdf:langString</i> [0..*]
premis_IntellectualEntity : genre : <i>xsd:string</i> [0..1]
premis_IntellectualEntity : identifier : <i>xsd:string</i> [1..1]
premis_IntellectualEntity : informations sur les droits : <i>rdf:langString</i> [0..*]
premis_IntellectualEntity : mots-clés : <i>rdf:langString</i> [0..*]
premis_IntellectualEntity : moyen d'art : <i>rdf:langString</i> [0..*]
premis_IntellectualEntity : médium : <i>xsd:string</i> [1..*]
premis_IntellectualEntity : nom : <i>rdf:langString</i> [1..1]
premis_IntellectualEntity : nom alternatif : <i>rdf:langString</i> [0..*]
premis_IntellectualEntity : résumé : <i>rdf:langString</i> [0..*]
premis_IntellectualEntity : sur : <i>IRI</i> [0..*]
premis_IntellectualEntity : temporelle : <i>rdf:langString</i> [0..*]
premis_IntellectualEntity : texte de crédit : <i>rdf:langString</i> [0..*]


premis_IntellectualEntity --> haOrg_ContentPartner :mainteneur/responsable [1..1]  > 
premis_IntellectualEntity --> org_Organization :détenteur des droits d'auteur [0..*]  > 

premis_IntellectualEntity --> schema_ArchiveComponent :est partie de [0..*]  > 
premis_IntellectualEntity --> schema_Collection :est partie de [0..*]  > 
premis_IntellectualEntity --> schema_CreativeWorkSeries :est partie de [0..*]  > 
premis_IntellectualEntity --> schema_Episode :est partie de [0..*]  > 
premis_IntellectualEntity --> schema_Person :détenteur des droits d'auteur [0..*]  > 
premis_IntellectualEntity --> schema_Place :spatial [0..*]  > 
premis_IntellectualEntity --> schema_QuantitativeValue :hauteur [0..*]  \llargeur [0..*]  \lprofondeur [0..*]  > 
premis_IntellectualEntity --> schema_Role :auteur [0..*]  \lcontributeur [0..*]  \léditeur [0..*]  > 
premis_IntellectualEntity --> skos_Concept :licence [0..*]  > 




premis_File --|> premis_Object #blue;line.dotted;text:blue

premis_File : description : <i>rdf:langString</i> [0..1]
premis_File : durée : <i>xsd:duration</i> [0..1]
premis_File : identifier : <i>xsd:string</i> [1..1]
premis_File : nom : <i>rdf:langString</i> [1..1]




schema_Place --|> schema_Thing #blue;line.dotted;text:blue

schema_Place : description : <i>rdf:langString</i> [0..1]
schema_Place : nom : <i>rdf:langString</i> [1..1]




haOrg_ContentPartner --|> org_Organization #blue;line.dotted;text:blue


schema_Person --|> schema_Thing #blue;line.dotted;text:blue


haObj_PhysicalCarrier --|> premis_StorageLocation #blue;line.dotted;text:blue

haObj_PhysicalCarrier : description : <i>rdf:langString</i> [0..1]
haObj_PhysicalCarrier : identifier : <i>xsd:string</i> [1..1]
haObj_PhysicalCarrier : nom : <i>rdf:langString</i> [1..1]

haObj_PhysicalCarrier --> schema_Brand :marque [0..1]  > 
haObj_PhysicalCarrier --> schema_QuantitativeValue :hauteur [0..*]  \llargeur [0..*]  \lprofondeur [0..*]  > 
haObj_PhysicalCarrier --> skos_Concept :problème de préservation [0..*]  > 


haObj_CarrierRepresentation --|> premis_Representation #blue;line.dotted;text:blue

haObj_CarrierRepresentation : description : <i>rdf:langString</i> [0..1]
haObj_CarrierRepresentation : identifier : <i>xsd:string</i> [1..1]
haObj_CarrierRepresentation : nom : <i>rdf:langString</i> [1..1]



haObj_DigitalRepresentation --|> premis_Representation #blue;line.dotted;text:blue

haObj_DigitalRepresentation : créé le : <i>edtf:EDTF-level1</i> [1..1]
haObj_DigitalRepresentation : description : <i>rdf:langString</i> [0..1]
haObj_DigitalRepresentation : durée : <i>xsd:duration</i> [0..1]
haObj_DigitalRepresentation : en langue : <i>xsd:string</i> [0..*]
haObj_DigitalRepresentation : identifier : <i>xsd:string</i> [1..1]
haObj_DigitalRepresentation : image miniature : <i>IRI</i> [0..1]
haObj_DigitalRepresentation : légende : <i>xsd:string</i> [0..1]
haObj_DigitalRepresentation : nom : <i>rdf:langString</i> [1..1]
haObj_DigitalRepresentation : transcription : <i>xsd:string</i> [0..1]



haObj_DigitalRepresentation --> schema_Role :auteur [0..*]  > 



schema_Role --|> schema_Thing #blue;line.dotted;text:blue

schema_Role : nom de rôle : <i>xsd:string</i> [1..*]
schema_Role --> org_Organization :auteur [0..*]  \lcontributeur [0..*]  \léditeur [0..*]  > 
schema_Role --> schema_Person :acteur [0..*]  \lauteur [0..*]  \lcontributeur [0..*]  \léditeur [0..*]  > 
schema_Role --> schema_Thing :auteur [0..*]  \lcontributeur [0..*]  \léditeur [0..*]  > 
schema_Role --> skos_Concept :nom de rôle [1..*]  > 


schema_CreativeWorkSeries --|> schema_CreativeWork #blue;line.dotted;text:blue

schema_CreativeWorkSeries : description : <i>rdf:langString</i> [0..1]
schema_CreativeWorkSeries : identifier : <i>xsd:string</i> [1..1]
schema_CreativeWorkSeries : nom : <i>rdf:langString</i> [1..1]
schema_CreativeWorkSeries : numéro de saison : <i>xsd:integer</i> [0..*]
schema_CreativeWorkSeries --> premis_IntellectualEntity :fait partie de [0..*]  > 

schema_CreativeWorkSeries --> schema_CreativeWorkSeries :est partie de [0..*]  \lfait partie de [0..*]  > 



schema_QuantitativeValue --|> schema_Thing #blue;line.dotted;text:blue

schema_QuantitativeValue : code d'unité : <i>xsd:string</i> [0..*]
schema_QuantitativeValue : texte d'unité : <i>xsd:string</i> [0..*]
schema_QuantitativeValue : valeur : <i>xsd:float</i> [0..*]



schema_Episode --|> schema_CreativeWork #blue;line.dotted;text:blue

schema_Episode : description : <i>rdf:langString</i> [0..1]
schema_Episode : identifier : <i>xsd:string</i> [1..1]
schema_Episode : nom : <i>rdf:langString</i> [1..1]
schema_Episode --> premis_IntellectualEntity :fait partie de [0..*]  > 




hide circle
hide methods
hide empty members
@enduml


