@startuml
!theme vibrant
skinparam classFontSize 14
!define LIGHTORANGE
skinparam componentStyle uml2
skinparam wrapMessageWidth 1000
skinparam wrapWidth 1000
' skinparam ArrowColor #Maroon
' Remove shadows
skinparam shadowing false
'skinparam linetype polyline
skinparam ArrowMessageAlignment left
top to bottom direction


class "<b>Brand</b> (schema:Brand)" as schema_Brand [[#schema%3ABrand]]
class "<b>Activity</b> (prov:Activity)" as prov_Activity [[#prov%3AActivity]]
class "<b>Event</b> (premis:Event)" as premis_Event [[#premis%3AEvent]]
class "<b>Activity</b> (prov:Activity)" as prov_Activity [[#prov%3AActivity]]
class "<b>Hardware agent</b> (premis:HardwareAgent)" as premis_HardwareAgent [[#premis%3AHardwareAgent]]
class "<b>Agent</b> (premis:Agent)" as premis_Agent [[#premis%3AAgent]]
class "<b>Object</b> (premis:Object)" as premis_Object [[#premis%3AObject]]
class "<b>Entity</b> (prov:Entity)" as prov_Entity [[#prov%3AEntity]]
class "<b>Organization</b> (org:Organization)" as org_Organization [[../../organizations/en#org%3AOrganization]]
class "<b>Outcome status</b> (premis:OutcomeStatus)" as premis_OutcomeStatus [[#premis%3AOutcomeStatus]]
class "<b>Person</b> (schema:Person)" as schema_Person [[../../organizations/en#schema%3APerson]]
class "<b>Thing</b> (schema:Thing)" as schema_Thing [[#schema%3AThing]]
class "<b>Software agent</b> (premis:SoftwareAgent)" as premis_SoftwareAgent [[#premis%3ASoftwareAgent]]
class "<b>Agent</b> (premis:Agent)" as premis_Agent [[#premis%3AAgent]]


schema_Brand : name : <i>rdf:langString</i> [1..1]



prov_Activity : has end date : <i>xsd:dateTime</i> [1..1]
prov_Activity : has generated : <i>IRI</i> [0..1]
prov_Activity : has start date : <i>xsd:dateTime</i> [1..1]

prov_Activity --> org_Organization :was associated with [1..1]  > 
prov_Activity --> premis_HardwareAgent :was associated with [1..1]  > 
prov_Activity --> premis_SoftwareAgent :was associated with [1..1]  > 
prov_Activity --> schema_Person :was associated with [1..1]  > 


premis_Event --|> prov_Activity #blue;line.dotted;text:blue

premis_Event : has note : <i>xsd:string</i> [0..1]
premis_Event : has outcome note : <i>xsd:string</i> [0..1]
premis_Event --> org_Organization :implemented by [1..1]  > 
premis_Event --> premis_HardwareAgent :instrument [0..*]  > 
premis_Event --> premis_Object :has source [0..*]  \lresult [0..*]  > 
premis_Event --> premis_OutcomeStatus :has outcome [0..1]  > 
premis_Event --> premis_SoftwareAgent :executed by [0..1]  > 


premis_HardwareAgent --|> premis_Agent #blue;line.dotted;text:blue

premis_HardwareAgent : model : <i>xsd:string</i> [0..1]
premis_HardwareAgent : name : <i>rdf:langString</i> [1..1]
premis_HardwareAgent : serialNumber : <i>xsd:string</i> [0..1]
premis_HardwareAgent : version : <i>xsd:string</i> [0..1]

premis_HardwareAgent --> schema_Brand :brand [0..1]  > 


premis_Object --|> prov_Entity #blue;line.dotted;text:blue

premis_Object --> premis_Event :was generated by [0..1]  > 





schema_Person --|> schema_Thing #blue;line.dotted;text:blue


premis_SoftwareAgent --|> premis_Agent #blue;line.dotted;text:blue

premis_SoftwareAgent : model : <i>xsd:string</i> [0..1]
premis_SoftwareAgent : name : <i>rdf:langString</i> [1..1]
premis_SoftwareAgent : serialNumber : <i>xsd:string</i> [0..1]
premis_SoftwareAgent : version : <i>xsd:string</i> [0..1]

premis_SoftwareAgent --> schema_Brand :brand [0..1]  > 



hide circle
hide methods
hide empty members
@enduml


