@startuml
!theme vibrant
skinparam classFontSize 14
!define LIGHTORANGE
skinparam componentStyle uml2
skinparam wrapMessageWidth 1000
skinparam wrapWidth 1000
' skinparam ArrowColor #Maroon
' Remove shadows
skinparam shadowing false
'skinparam linetype polyline
skinparam ArrowMessageAlignment left
top to bottom direction


class "<b>Organisation Formelle</b> (org:FormalOrganization)" as org_FormalOrganization [[#org%3AFormalOrganization]]
class "<b>organisation</b> (org:Organization)" as org_Organization [[#org%3AOrganization]]
class "<b>activité</b> (prov:Activity)" as prov_Activity [[#prov%3AActivity]]
class "<b>adresse postale</b> (schema:PostalAddress)" as schema_PostalAddress [[#schema%3APostalAddress]]
class "<b>point de contact</b> (schema:ContactPoint)" as schema_ContactPoint [[#schema%3AContactPoint]]
class "<b>collection</b> (schema:Collection)" as schema_Collection [[#schema%3ACollection]]
class "<b>travail créatif</b> (schema:CreativeWork)" as schema_CreativeWork [[#schema%3ACreativeWork]]
class "<b>collection</b> (skos:Collection)" as skos_Collection [[#skos%3ACollection]]
class "<b>collection ordonnée</b> (skos:OrderedCollection)" as skos_OrderedCollection [[#skos%3AOrderedCollection]]
class "<b>collection</b> (skos:Collection)" as skos_Collection [[#skos%3ACollection]]
class "<b>composant d'archive</b> (schema:ArchiveComponent)" as schema_ArchiveComponent [[#schema%3AArchiveComponent]]
class "<b>travail créatif</b> (schema:CreativeWork)" as schema_CreativeWork [[#schema%3ACreativeWork]]
class "<b>concept</b> (skos:Concept)" as skos_Concept [[#skos%3AConcept]]
class "<b>consomatteur de services</b> (haOrg:ServiceConsumer)" as haOrg_ServiceConsumer [[#haOrg%3AServiceConsumer]]
class "<b>organisation</b> (org:Organization)" as org_Organization [[#org%3AOrganization]]
class "<b>emplacement de stockage</b> (premis:StorageLocation)" as premis_StorageLocation [[#premis%3AStorageLocation]]
class "<b>entité intellectuelle</b> (premis:IntellectualEntity)" as premis_IntellectualEntity [[#premis%3AIntellectualEntity]]
class "<b>objet</b> (premis:Object)" as premis_Object [[#premis%3AObject]]
class "<b>fichier</b> (premis:File)" as premis_File [[#premis%3AFile]]
class "<b>objet</b> (premis:Object)" as premis_Object [[#premis%3AObject]]
class "<b>fixité</b> (premis:Fixity)" as premis_Fixity [[#premis%3AFixity]]
class "<b>format de fichier</b> (dct:FileFormat)" as dct_FileFormat [[#dct%3AFileFormat]]
class "<b>fournisseur de services</b> (haOrg:ServiceProvider)" as haOrg_ServiceProvider [[#haOrg%3AServiceProvider]]
class "<b>organisation</b> (org:Organization)" as org_Organization [[#org%3AOrganization]]
class "<b>identifiant local</b> (haObj:LocalIdentifier)" as haObj_LocalIdentifier [[#haObj%3ALocalIdentifier]]
class "<b>concept</b> (skos:Concept)" as skos_Concept [[#skos%3AConcept]]
class "<b>lieu</b> (schema:Place)" as schema_Place [[#schema%3APlace]]
class "<b>liste</b> (rdf:List)" as rdf_List [[#rdf%3AList]]
class "<b>logiciel acteur</b> (premis:SoftwareAgent)" as premis_SoftwareAgent [[#premis%3ASoftwareAgent]]
class "<b>acteur</b> (premis:Agent)" as premis_Agent [[#premis%3AAgent]]
class "<b>logo</b> (haOrg:Logo)" as haOrg_Logo [[#haOrg%3ALogo]]
class "<b>matériel acteur</b> (premis:HardwareAgent)" as premis_HardwareAgent [[#premis%3AHardwareAgent]]
class "<b>acteur</b> (premis:Agent)" as premis_Agent [[#premis%3AAgent]]
class "<b>objet</b> (premis:Object)" as premis_Object [[#premis%3AObject]]
class "<b>entité</b> (prov:Entity)" as prov_Entity [[#prov%3AEntity]]
class "<b>organisation</b> (org:Organization)" as org_Organization [[#org%3AOrganization]]
class "<b>partenaire de contenus</b> (haOrg:ContentPartner)" as haOrg_ContentPartner [[#haOrg%3AContentPartner]]
class "<b>organisation</b> (org:Organization)" as org_Organization [[#org%3AOrganization]]
class "<b>partenaire de digitalisation</b> (haOrg:DigitizationPartner)" as haOrg_DigitizationPartner [[#haOrg%3ADigitizationPartner]]
class "<b>fournisseur de services</b> (haOrg:ServiceProvider)" as haOrg_ServiceProvider [[#haOrg%3AServiceProvider]]
class "<b>partenaire de projet</b> (haOrg:ProjectPartner)" as haOrg_ProjectPartner [[#haOrg%3AProjectPartner]]
class "<b>organisation</b> (org:Organization)" as org_Organization [[#org%3AOrganization]]
class "<b>partenaire éducatif</b> (haOrg:EducationalPartner)" as haOrg_EducationalPartner [[#haOrg%3AEducationalPartner]]
class "<b>organisation</b> (org:Organization)" as org_Organization [[#org%3AOrganization]]
class "<b>pays</b> (schema:Country)" as schema_Country [[#schema%3ACountry]]
class "<b>personne</b> (schema:Person)" as schema_Person [[#schema%3APerson]]
class "<b>point de contact</b> (schema:ContactPoint)" as schema_ContactPoint [[#schema%3AContactPoint]]
class "<b>poste</b> (org:Post)" as org_Post [[#org%3APost]]
class "<b>représentation</b> (premis:Representation)" as premis_Representation [[#premis%3ARepresentation]]
class "<b>objet</b> (premis:Object)" as premis_Object [[#premis%3AObject]]
class "<b>représentation digitale</b> (haObj:DigitalRepresentation)" as haObj_DigitalRepresentation [[#haObj%3ADigitalRepresentation]]
class "<b>représentation</b> (premis:Representation)" as premis_Representation [[#premis%3ARepresentation]]
class "<b>représentation physique</b> (haObj:PhysicalRepresentation)" as haObj_PhysicalRepresentation [[#haObj%3APhysicalRepresentation]]
class "<b>représentation</b> (premis:Representation)" as premis_Representation [[#premis%3ARepresentation]]
class "<b>rôle</b> (schema:Role)" as schema_Role [[#schema%3ARole]]
class "<b>rôle</b> (org:Role)" as org_Role [[#org%3ARole]]
class "<b>concept</b> (skos:Concept)" as skos_Concept [[#skos%3AConcept]]
class "<b>schéma de concepts</b> (skos:ConceptScheme)" as skos_ConceptScheme [[#skos%3AConceptScheme]]
class "<b>site</b> (org:Site)" as org_Site [[#org%3ASite]]
class "<b>statut de résultat</b> (premis:OutcomeStatus)" as premis_OutcomeStatus [[#premis%3AOutcomeStatus]]
class "<b>support de stockage</b> (premis:StorageMedium)" as premis_StorageMedium [[#premis%3AStorageMedium]]
class "<b>série du travail créatif</b> (schema:CreativeWorkSeries)" as schema_CreativeWorkSeries [[#schema%3ACreativeWorkSeries]]
class "<b>travail créatif</b> (schema:CreativeWork)" as schema_CreativeWork [[#schema%3ACreativeWork]]
class "<b>type de organisation</b> (haOrg:OrganizationType)" as haOrg_OrganizationType [[#haOrg%3AOrganizationType]]
class "<b>concept</b> (skos:Concept)" as skos_Concept [[#skos%3AConcept]]
class "<b>unité opérationnelle</b> (org:OrganizationalUnit)" as org_OrganizationalUnit [[#org%3AOrganizationalUnit]]
class "<b>organisation</b> (org:Organization)" as org_Organization [[#org%3AOrganization]]
class "<b>valeur quantitative</b> (schema:QuantitativeValue)" as schema_QuantitativeValue [[#schema%3AQuantitativeValue]]
class "<b>épisode</b> (schema:Episode)" as schema_Episode [[#schema%3AEpisode]]
class "<b>travail créatif</b> (schema:CreativeWork)" as schema_CreativeWork [[#schema%3ACreativeWork]]
class "<b>étiquette</b> (skosxl:Label)" as skosxl_Label [[#skosxl%3ALabel]]
class "<b>événement</b> (premis:Event)" as premis_Event [[#premis%3AEvent]]
class "<b>activité</b> (prov:Activity)" as prov_Activity [[#prov%3AActivity]]

org_FormalOrganization --|> org_Organization #blue;line.dotted;text:blue



prov_Activity : a date de début : <i>xsd:dateTime</i> [1..1]
prov_Activity : a date de fin : <i>xsd:dateTime</i> [1..1]
prov_Activity : a généré : <i>IRI</i> [0..1]

prov_Activity --> org_Organization :était attribué à [1..1]  > 
prov_Activity --> premis_HardwareAgent :était attribué à [1..1]  > 
prov_Activity --> premis_SoftwareAgent :était attribué à [1..1]  > 
prov_Activity --> schema_Person :était attribué à [1..1]  > 


schema_PostalAddress --|> schema_ContactPoint #blue;line.dotted;text:blue

schema_PostalAddress : l'adresse : <i>xsd:string</i> [0..1]
schema_PostalAddress : le code postal : <i>xsd:string</i> [0..1]
schema_PostalAddress : le numéro de boîte postale : <i>xsd:string</i> [0..1]
schema_PostalAddress : pays : <i>xsd:string</i> [0..1]
schema_PostalAddress : provincie : <i>xsd:string</i> [0..1]
schema_PostalAddress : ville : <i>xsd:string</i> [0..1]
schema_PostalAddress --> schema_Country :pays [0..1]  > 


schema_Collection --|> schema_CreativeWork #blue;line.dotted;text:blue

schema_Collection : description : <i>xsd:string</i> [1..1]
schema_Collection : identifier : <i>xsd:string</i> [1..1]
schema_Collection : nom : <i>xsd:string</i> [1..1]
schema_Collection : nombre d'éléments : <i>xsd:integer</i> [0..*]
schema_Collection --> premis_IntellectualEntity :fait partie de [0..*]  > 




skos_Collection : définition : <i>rdf:langString</i> [0..*]
skos_Collection : exemple : <i>rdf:langString</i> [0..*]
skos_Collection : notation : <i>xsd:string</i> [0..*]
skos_Collection : note : <i>rdf:langString</i> [0..*]
skos_Collection : note d'historique : <i>rdf:langString</i> [0..*]
skos_Collection : note de champ : <i>rdf:langString</i> [0..*]
skos_Collection : note de changement : <i>rdf:langString</i> [0..*]
skos_Collection : note éditoriale : <i>rdf:langString</i> [0..*]
skos_Collection : étiquette alternative : <i>rdf:langString</i> [0..*]
skos_Collection : étiquette cachée : <i>rdf:langString</i> [0..*]
skos_Collection : étiquette préférée : <i>rdf:langString</i> [1..*]

skos_Collection --> skos_Collection :membre [0..*]  > 
skos_Collection --> skos_Concept :membre [0..*]  > 


skos_OrderedCollection --|> skos_Collection #blue;line.dotted;text:blue

skos_OrderedCollection : définition : <i>rdf:langString</i> [0..*]
skos_OrderedCollection : exemple : <i>rdf:langString</i> [0..*]
skos_OrderedCollection : notation : <i>xsd:string</i> [0..*]
skos_OrderedCollection : note : <i>rdf:langString</i> [0..*]
skos_OrderedCollection : note d'historique : <i>rdf:langString</i> [0..*]
skos_OrderedCollection : note de champ : <i>rdf:langString</i> [0..*]
skos_OrderedCollection : note de changement : <i>rdf:langString</i> [0..*]
skos_OrderedCollection : note éditoriale : <i>rdf:langString</i> [0..*]
skos_OrderedCollection : étiquette alternative : <i>rdf:langString</i> [0..*]
skos_OrderedCollection : étiquette cachée : <i>rdf:langString</i> [0..*]
skos_OrderedCollection : étiquette préférée : <i>rdf:langString</i> [1..*]



schema_ArchiveComponent --|> schema_CreativeWork #blue;line.dotted;text:blue

schema_ArchiveComponent : description : <i>xsd:string</i> [1..1]
schema_ArchiveComponent : nom : <i>xsd:string</i> [1..1]



skos_Concept : définition : <i>rdf:langString</i> [1..*]
skos_Concept : exemple : <i>rdf:langString</i> [0..*]
skos_Concept : notation : <i>xsd:string</i> [0..*]
skos_Concept : note : <i>rdf:langString</i> [0..*]
skos_Concept : note d'historique : <i>rdf:langString</i> [0..*]
skos_Concept : note de champ : <i>rdf:langString</i> [0..*]
skos_Concept : note de changement : <i>rdf:langString</i> [0..*]
skos_Concept : note éditoriale : <i>rdf:langString</i> [0..*]
skos_Concept : étiquette alternative : <i>rdf:langString</i> [0..*]
skos_Concept : étiquette cachée : <i>rdf:langString</i> [0..*]
skos_Concept : étiquette préférée : <i>rdf:langString</i> [1..*]

skos_Concept --> skos_Concept :correspondance exacte [0..*]  \lcorrespondance large [0..*]  \lcorrespondance liée [0..*]  \lcorrespondance proche [0..*]  \lcorrespondance étroite [0..*]  \llié [0..*]  \lplus large [0..*]  \lplus large transitive [0..*]  \lplus étroit [0..*]  \lplus étroit transitive [0..*]  \lrelation de correspondance [0..*]  \lrelation sémantique [0..*]  > 
skos_Concept --> skos_ConceptScheme :concept supérieur de [0..*]  \ldans le schéma [1..*]  > 
skos_Concept --> skosxl_Label :label préféré [0..1]  > 


haOrg_ServiceConsumer --|> org_Organization #blue;line.dotted;text:blue

haOrg_ServiceConsumer : possède un identifiant : <i>xsd:string</i> [1..1]



premis_StorageLocation : chemin du fichier : <i>xsd:string</i> [1..*]
premis_StorageLocation --> premis_StorageMedium :a un support [0..*]  > 


premis_IntellectualEntity --|> premis_Object #blue;line.dotted;text:blue

premis_IntellectualEntity : année de copyright : <i>xsd:integer</i> [0..*]
premis_IntellectualEntity : avis de copyright : <i>xsd:string</i> [0..*]
premis_IntellectualEntity : date de création : <i>edtf:EDTF-level1</i> [0..1]
premis_IntellectualEntity : date de publication : <i>edtf:EDTF-level1</i> [0..1]
premis_IntellectualEntity : description : <i>xsd:string</i> [1..1]
premis_IntellectualEntity : disponible le : <i>xsd:dateTime</i> [0..*]
premis_IntellectualEntity : durée : <i>xsd:dateTime</i> [0..1]
premis_IntellectualEntity : en langue : <i>xsd:string</i> [1..*]
premis_IntellectualEntity : genre : <i>xsd:string</i> [0..*]
premis_IntellectualEntity : identifier : <i>xsd:string</i> [1..1]
premis_IntellectualEntity : mots-clés : <i>xsd:string</i> [0..*]
premis_IntellectualEntity : nom : <i>xsd:string</i> [1..1]
premis_IntellectualEntity : nom alternatif : <i>xsd:string</i> [0..*]
premis_IntellectualEntity : résumé : <i>xsd:string</i> [0..1]
premis_IntellectualEntity : sur : <i>IRI</i> [0..*]
premis_IntellectualEntity : temporelle : <i>rdf:langString</i> [0..*]
premis_IntellectualEntity : texte de crédit : <i>xsd:string</i> [0..*]


premis_IntellectualEntity --> haObj_DigitalRepresentation :a copie d'accès [0..*]  \la copie principale [0..1]  \la format mezzanine [0..1]  > 
premis_IntellectualEntity --> haObj_LocalIdentifier :identificateur local [0..*]  > 
premis_IntellectualEntity --> haOrg_ContentPartner :mainteneur/responsable [1..1]  > 
premis_IntellectualEntity --> org_Organization :détenteur des droits d'auteur [0..*]  > 
premis_IntellectualEntity --> premis_IntellectualEntity :a partie [0..*]  \lfait partie de [0..*]  > 
premis_IntellectualEntity --> premis_Representation :est représenté par [0..*]  > 

premis_IntellectualEntity --> schema_ArchiveComponent :est partie de [0..*]  > 
premis_IntellectualEntity --> schema_CreativeWorkSeries :est partie de [0..*]  > 
premis_IntellectualEntity --> schema_Episode :est partie de [0..*]  > 
premis_IntellectualEntity --> schema_Person :détenteur des droits d'auteur [0..*]  > 
premis_IntellectualEntity --> schema_Place :spatial [0..*]  > 
premis_IntellectualEntity --> schema_Role :auteur [0..*]  \lcontributeur [0..*]  \léditeur [0..*]  > 
premis_IntellectualEntity --> skos_Concept :licence [0..*]  > 




premis_File --|> premis_Object #blue;line.dotted;text:blue

premis_File : a une taille (du fichier) : <i>xsd:nonNegativeInteger</i> [0..1]
premis_File : mime type : <i>xsd:string</i> [0..1]
premis_File : porte le nom d'origine : <i>xsd:string</i> [0..1]
premis_File --> dct_FileFormat :format [1..1]  > 
premis_File --> haObj_DigitalRepresentation :a le fragment des médias [0..*]  \lest inclus dans [1..*]  > 
premis_File --> premis_File :document [0..*]  \lfichier suivant dans l'ordre [0..1]  \lremplace [0..*]  > 
premis_File --> premis_Fixity :a fixity [1..1]  > 
premis_File --> premis_StorageLocation :stocké à [1..*]  > 




premis_Fixity : créateur de somme de contrôle : <i>xsd:string</i> [0..*]
premis_Fixity : vérification de la fixation : <i>xsd:string</i> [1..*]




haOrg_ServiceProvider --|> org_Organization #blue;line.dotted;text:blue

haOrg_ServiceProvider : possède un identifiant : <i>xsd:string</i> [1..1]


haObj_LocalIdentifier --|> skos_Concept #blue;line.dotted;text:blue

haObj_LocalIdentifier : valeur : <i>xsd:string</i> [1..1]



schema_Place : description : <i>xsd:string</i> [1..1]
schema_Place : nom : <i>xsd:string</i> [1..1]



rdf_List --> skos_Collection :None [0..*]  > 
rdf_List --> skos_Concept :None [0..*]  > 

premis_SoftwareAgent --|> premis_Agent #blue;line.dotted;text:blue




premis_HardwareAgent --|> premis_Agent #blue;line.dotted;text:blue


premis_Object --|> prov_Entity #blue;line.dotted;text:blue

premis_Object --> premis_Event :généré par [0..1]  > 
premis_Object --> premis_Object :a une relation [0..*]  > 


org_Organization : description : <i>rdf:langString</i> [0..*]
org_Organization : label alternatif : <i>rdf:langString</i> [0..*]
org_Organization : label préféré : <i>rdf:langString</i> [1..*]
org_Organization : nom du locataire Mediahaven : <i>xsd:string</i> [0..*]
org_Organization : page d'accueil : <i>IRI</i> [0..1]
org_Organization : possède un identifiant : <i>xsd:string</i> [0..1]
org_Organization : secteur : <i>xsd:string</i> [0..1]

org_Organization --> haOrg_Logo :logo [0..*]  > 
org_Organization --> haOrg_OrganizationType :classification [0..*]  > 
org_Organization --> org_OrganizationalUnit :possède une Unité [0..*]  > 
org_Organization --> org_Post :possède un poste [0..*]  > 
org_Organization --> org_Site :a un site [0..*]  \la un site principal [0..1]  > 

org_Organization --> schema_ContactPoint :point de contact [0..*]  > 
org_Organization --> schema_Person :a gestionnaire de comptes [0..1]  > 


haOrg_ContentPartner --|> org_Organization #blue;line.dotted;text:blue

haOrg_ContentPartner : permet la superposition : <i>xsd:boolean</i> [1..1]
haOrg_ContentPartner : permet le bezoekertool : <i>xsd:boolean</i> [1..1]
haOrg_ContentPartner : possède un identifiant : <i>xsd:string</i> [1..1]
haOrg_ContentPartner --> schema_Person :a gestionnaire de comptes [1..1]  > 



haOrg_DigitizationPartner --|> haOrg_ServiceProvider #blue;line.dotted;text:blue

haOrg_DigitizationPartner : possède un identifiant : <i>xsd:string</i> [1..1]


haOrg_ProjectPartner --|> org_Organization #blue;line.dotted;text:blue

haOrg_ProjectPartner : possède un identifiant : <i>xsd:string</i> [1..1]


haOrg_EducationalPartner --|> org_Organization #blue;line.dotted;text:blue

haOrg_EducationalPartner : possède un identifiant : <i>xsd:string</i> [1..1]
haOrg_EducationalPartner --> schema_Person :a gestionnaire de comptes [1..1]  > 





schema_Person : date de décès : <i>edtf:EDTF-level1</i> [0..1]
schema_Person : date de naissance : <i>edtf:EDTF-level1</i> [0..1]
schema_Person : email : <i>xsd:string</i> [0..*]
schema_Person : nom : <i>xsd:string</i> [0..1]
schema_Person : nom de famille : <i>xsd:string</i> [1..1]
schema_Person : prénom : <i>xsd:string</i> [1..1]

schema_Person --> org_Organization :est le Gestionnaire de Comptes de [0..*]  > 
schema_Person --> org_Post :occupe [0..*]  > 



schema_ContactPoint : e-mail : <i>xsd:string</i> [0..*]
schema_ContactPoint : numéro de téléphone : <i>xsd:string</i> [0..*]
schema_ContactPoint : type de contact : <i>xsd:string</i> [1..1]



org_Post --> org_Organization :poste chez [1..*]  > 
org_Post --> org_Role :rôle [1..*]  > 

premis_Representation --|> premis_Object #blue;line.dotted;text:blue


haObj_DigitalRepresentation --|> premis_Representation #blue;line.dotted;text:blue

haObj_DigitalRepresentation : créé le : <i>edtf:EDTF-level1</i> [1..1]
haObj_DigitalRepresentation : description : <i>xsd:string</i> [1..1]
haObj_DigitalRepresentation : identifier : <i>xsd:string</i> [1..1]
haObj_DigitalRepresentation : légende : <i>xsd:string</i> [0..1]
haObj_DigitalRepresentation : nom : <i>xsd:string</i> [1..1]
haObj_DigitalRepresentation : transcription : <i>xsd:string</i> [0..1]

haObj_DigitalRepresentation --> haObj_PhysicalRepresentation :a une source [0..*]  > 
haObj_DigitalRepresentation --> premis_File :est à la base de [0..*]  \linclut [1..*]  \lsource du fragment de média (MediaFragment) [0..*]  > 
haObj_DigitalRepresentation --> premis_IntellectualEntity :est copie d'accès de [0..1]  \lest format mezzanine de [0..1]  \lest la copie principale de [1..*]  \lreprésente [1..*]  > 
haObj_DigitalRepresentation --> schema_Role :auteur [0..*]  > 


haObj_PhysicalRepresentation --|> premis_Representation #blue;line.dotted;text:blue

haObj_PhysicalRepresentation : description : <i>xsd:string</i> [1..1]
haObj_PhysicalRepresentation : format : <i>xsd:string</i> [1..1]
haObj_PhysicalRepresentation : forme d'art : <i>xsd:string</i> [0..*]
haObj_PhysicalRepresentation : identifier : <i>xsd:string</i> [1..1]
haObj_PhysicalRepresentation : moyen d'art : <i>xsd:string</i> [0..*]
haObj_PhysicalRepresentation : médium : <i>xsd:string</i> [1..*]
haObj_PhysicalRepresentation : nom : <i>xsd:string</i> [1..1]
haObj_PhysicalRepresentation --> premis_StorageMedium :a un support [0..*]  > 
haObj_PhysicalRepresentation --> schema_QuantitativeValue :hauteur [0..*]  \llargeur [0..*]  \lprofondeur [0..*]  > 



schema_Role : nom de rôle : <i>xsd:string</i> [1..*]
schema_Role --> org_Organization :auteur [0..*]  \lcontributeur [0..*]  \léditeur [0..*]  > 
schema_Role --> schema_Person :acteur [0..*]  \lauteur [0..*]  \lcontributeur [0..*]  \léditeur [0..*]  > 
schema_Role --> skos_Concept :nom de rôle [1..*]  > 


org_Role --|> skos_Concept #blue;line.dotted;text:blue

org_Role : label préféré : <i>rdf:langString</i> [1..*]



skos_ConceptScheme : exemple : <i>rdf:langString</i> [0..*]
skos_ConceptScheme : notation : <i>xsd:string</i> [0..*]
skos_ConceptScheme : note : <i>rdf:langString</i> [0..*]
skos_ConceptScheme : note d'historique : <i>rdf:langString</i> [0..*]
skos_ConceptScheme : note de champ : <i>rdf:langString</i> [0..*]
skos_ConceptScheme : note de changement : <i>rdf:langString</i> [0..*]
skos_ConceptScheme : note éditoriale : <i>rdf:langString</i> [0..*]
skos_ConceptScheme : étiquette alternative : <i>rdf:langString</i> [0..*]
skos_ConceptScheme : étiquette cachée : <i>rdf:langString</i> [0..*]
skos_ConceptScheme : étiquette préférée : <i>rdf:langString</i> [1..*]

skos_ConceptScheme --> skos_Concept :a pour concept supérieur [0..*]  > 



org_Site --> org_Organization :site de [1..1]  > 
org_Site --> schema_PostalAddress :adresse du Site [0..1]  > 





schema_CreativeWorkSeries --|> schema_CreativeWork #blue;line.dotted;text:blue

schema_CreativeWorkSeries : description : <i>xsd:string</i> [1..1]
schema_CreativeWorkSeries : identifier : <i>xsd:string</i> [1..1]
schema_CreativeWorkSeries : nom : <i>xsd:string</i> [1..1]
schema_CreativeWorkSeries : numéro de saison : <i>xsd:integer</i> [0..*]



haOrg_OrganizationType --|> skos_Concept #blue;line.dotted;text:blue


org_OrganizationalUnit --|> org_Organization #blue;line.dotted;text:blue

org_OrganizationalUnit --> org_Organization :unité de [1..*]  > 


schema_QuantitativeValue : code d'unité : <i>xsd:string</i> [0..*]
schema_QuantitativeValue : texte d'unité : <i>xsd:string</i> [0..*]
schema_QuantitativeValue : valeur : <i>xsd:float</i> [0..*]



schema_Episode --|> schema_CreativeWork #blue;line.dotted;text:blue

schema_Episode : description : <i>xsd:string</i> [1..1]
schema_Episode : identifier : <i>xsd:string</i> [1..1]
schema_Episode : nom : <i>xsd:string</i> [1..1]



skosxl_Label : définition : <i>rdf:langString</i> [1..*]
skosxl_Label : exemple : <i>rdf:langString</i> [0..*]
skosxl_Label : forme littérale : <i>rdf:langString</i> [1..1]
skosxl_Label : notation : <i>xsd:string</i> [0..*]
skosxl_Label : note : <i>rdf:langString</i> [0..*]
skosxl_Label : note d'historique : <i>rdf:langString</i> [0..*]
skosxl_Label : note de champ : <i>rdf:langString</i> [0..*]
skosxl_Label : note de changement : <i>rdf:langString</i> [0..*]
skosxl_Label : note éditoriale : <i>rdf:langString</i> [0..*]
skosxl_Label : étiquette alternative : <i>rdf:langString</i> [0..*]
skosxl_Label : étiquette cachée : <i>rdf:langString</i> [0..*]
skosxl_Label : étiquette préférée : <i>rdf:langString</i> [1..*]



premis_Event --|> prov_Activity #blue;line.dotted;text:blue

premis_Event : a une note : <i>xsd:string</i> [0..1]
premis_Event : a une note de résultat : <i>xsd:string</i> [0..1]
premis_Event --> org_Organization :implementé par [1..1]  > 
premis_Event --> premis_HardwareAgent :exécuté par [0..1]  > 
premis_Event --> premis_Object :a une source [0..1]  \lrésultat [0..1]  > 
premis_Event --> premis_OutcomeStatus :a résultat [0..1]  > 
premis_Event --> premis_SoftwareAgent :exécuté par [0..1]  > 



hide circle
hide methods
hide empty members
@enduml


