@startuml
!theme vibrant
skinparam classFontSize 14
!define LIGHTORANGE
skinparam componentStyle uml2
skinparam wrapMessageWidth 1000
skinparam wrapWidth 1000
' skinparam ArrowColor #Maroon
' Remove shadows
skinparam shadowing false
'skinparam linetype polyline
skinparam ArrowMessageAlignment left
top to bottom direction


class "<b>Formal Organization</b> (org:FormalOrganization)" as org_FormalOrganization [[#org%3AFormalOrganization]]
class "<b>organization</b> (org:Organization)" as org_Organization [[#org%3AOrganization]]
class "<b>activity</b> (prov:Activity)" as prov_Activity [[#prov%3AActivity]]
class "<b>archive component</b> (schema:ArchiveComponent)" as schema_ArchiveComponent [[#schema%3AArchiveComponent]]
class "<b>creative work</b> (schema:CreativeWork)" as schema_CreativeWork [[#schema%3ACreativeWork]]
class "<b>collection</b> (schema:Collection)" as schema_Collection [[#schema%3ACollection]]
class "<b>creative work</b> (schema:CreativeWork)" as schema_CreativeWork [[#schema%3ACreativeWork]]
class "<b>collection</b> (skos:Collection)" as skos_Collection [[#skos%3ACollection]]
class "<b>concept</b> (skos:Concept)" as skos_Concept [[#skos%3AConcept]]
class "<b>concept scheme</b> (skos:ConceptScheme)" as skos_ConceptScheme [[#skos%3AConceptScheme]]
class "<b>contactPoint</b> (schema:ContactPoint)" as schema_ContactPoint [[#schema%3AContactPoint]]
class "<b>content partner</b> (haOrg:ContentPartner)" as haOrg_ContentPartner [[#haOrg%3AContentPartner]]
class "<b>organization</b> (org:Organization)" as org_Organization [[#org%3AOrganization]]
class "<b>country</b> (schema:Country)" as schema_Country [[#schema%3ACountry]]
class "<b>creative work series</b> (schema:CreativeWorkSeries)" as schema_CreativeWorkSeries [[#schema%3ACreativeWorkSeries]]
class "<b>creative work</b> (schema:CreativeWork)" as schema_CreativeWork [[#schema%3ACreativeWork]]
class "<b>digital representation</b> (haObj:DigitalRepresentation)" as haObj_DigitalRepresentation [[#haObj%3ADigitalRepresentation]]
class "<b>representation</b> (premis:Representation)" as premis_Representation [[#premis%3ARepresentation]]
class "<b>digitization partner</b> (haOrg:DigitizationPartner)" as haOrg_DigitizationPartner [[#haOrg%3ADigitizationPartner]]
class "<b>service provider</b> (haOrg:ServiceProvider)" as haOrg_ServiceProvider [[#haOrg%3AServiceProvider]]
class "<b>educational partner</b> (haOrg:EducationalPartner)" as haOrg_EducationalPartner [[#haOrg%3AEducationalPartner]]
class "<b>organization</b> (org:Organization)" as org_Organization [[#org%3AOrganization]]
class "<b>episode</b> (schema:Episode)" as schema_Episode [[#schema%3AEpisode]]
class "<b>creative work</b> (schema:CreativeWork)" as schema_CreativeWork [[#schema%3ACreativeWork]]
class "<b>event</b> (premis:Event)" as premis_Event [[#premis%3AEvent]]
class "<b>activity</b> (prov:Activity)" as prov_Activity [[#prov%3AActivity]]
class "<b>file</b> (premis:File)" as premis_File [[#premis%3AFile]]
class "<b>object</b> (premis:Object)" as premis_Object [[#premis%3AObject]]
class "<b>file format</b> (dct:FileFormat)" as dct_FileFormat [[#dct%3AFileFormat]]
class "<b>fixity</b> (premis:Fixity)" as premis_Fixity [[#premis%3AFixity]]
class "<b>hardware agent</b> (premis:HardwareAgent)" as premis_HardwareAgent [[#premis%3AHardwareAgent]]
class "<b>agent</b> (premis:Agent)" as premis_Agent [[#premis%3AAgent]]
class "<b>intellectual entity</b> (premis:IntellectualEntity)" as premis_IntellectualEntity [[#premis%3AIntellectualEntity]]
class "<b>object</b> (premis:Object)" as premis_Object [[#premis%3AObject]]
class "<b>label</b> (skosxl:Label)" as skosxl_Label [[#skosxl%3ALabel]]
class "<b>list</b> (rdf:List)" as rdf_List [[#rdf%3AList]]
class "<b>local identifier</b> (haObj:LocalIdentifier)" as haObj_LocalIdentifier [[#haObj%3ALocalIdentifier]]
class "<b>concept</b> (skos:Concept)" as skos_Concept [[#skos%3AConcept]]
class "<b>logo</b> (haOrg:Logo)" as haOrg_Logo [[#haOrg%3ALogo]]
class "<b>object</b> (premis:Object)" as premis_Object [[#premis%3AObject]]
class "<b>entity</b> (prov:Entity)" as prov_Entity [[#prov%3AEntity]]
class "<b>ordered collection</b> (skos:OrderedCollection)" as skos_OrderedCollection [[#skos%3AOrderedCollection]]
class "<b>collection</b> (skos:Collection)" as skos_Collection [[#skos%3ACollection]]
class "<b>organization</b> (org:Organization)" as org_Organization [[#org%3AOrganization]]
class "<b>organization type</b> (haOrg:OrganizationType)" as haOrg_OrganizationType [[#haOrg%3AOrganizationType]]
class "<b>concept</b> (skos:Concept)" as skos_Concept [[#skos%3AConcept]]
class "<b>organizationalUnit</b> (org:OrganizationalUnit)" as org_OrganizationalUnit [[#org%3AOrganizationalUnit]]
class "<b>organization</b> (org:Organization)" as org_Organization [[#org%3AOrganization]]
class "<b>outcome status</b> (premis:OutcomeStatus)" as premis_OutcomeStatus [[#premis%3AOutcomeStatus]]
class "<b>person</b> (schema:Person)" as schema_Person [[#schema%3APerson]]
class "<b>physical representation</b> (haObj:PhysicalRepresentation)" as haObj_PhysicalRepresentation [[#haObj%3APhysicalRepresentation]]
class "<b>representation</b> (premis:Representation)" as premis_Representation [[#premis%3ARepresentation]]
class "<b>place</b> (schema:Place)" as schema_Place [[#schema%3APlace]]
class "<b>post</b> (org:Post)" as org_Post [[#org%3APost]]
class "<b>postal address</b> (schema:PostalAddress)" as schema_PostalAddress [[#schema%3APostalAddress]]
class "<b>contactPoint</b> (schema:ContactPoint)" as schema_ContactPoint [[#schema%3AContactPoint]]
class "<b>project partner</b> (haOrg:ProjectPartner)" as haOrg_ProjectPartner [[#haOrg%3AProjectPartner]]
class "<b>organization</b> (org:Organization)" as org_Organization [[#org%3AOrganization]]
class "<b>quantitative Value</b> (schema:QuantitativeValue)" as schema_QuantitativeValue [[#schema%3AQuantitativeValue]]
class "<b>representation</b> (premis:Representation)" as premis_Representation [[#premis%3ARepresentation]]
class "<b>object</b> (premis:Object)" as premis_Object [[#premis%3AObject]]
class "<b>role</b> (schema:Role)" as schema_Role [[#schema%3ARole]]
class "<b>role</b> (org:Role)" as org_Role [[#org%3ARole]]
class "<b>concept</b> (skos:Concept)" as skos_Concept [[#skos%3AConcept]]
class "<b>service consumer</b> (haOrg:ServiceConsumer)" as haOrg_ServiceConsumer [[#haOrg%3AServiceConsumer]]
class "<b>organization</b> (org:Organization)" as org_Organization [[#org%3AOrganization]]
class "<b>service provider</b> (haOrg:ServiceProvider)" as haOrg_ServiceProvider [[#haOrg%3AServiceProvider]]
class "<b>organization</b> (org:Organization)" as org_Organization [[#org%3AOrganization]]
class "<b>site</b> (org:Site)" as org_Site [[#org%3ASite]]
class "<b>software agent</b> (premis:SoftwareAgent)" as premis_SoftwareAgent [[#premis%3ASoftwareAgent]]
class "<b>agent</b> (premis:Agent)" as premis_Agent [[#premis%3AAgent]]
class "<b>storage location</b> (premis:StorageLocation)" as premis_StorageLocation [[#premis%3AStorageLocation]]
class "<b>storage medium</b> (premis:StorageMedium)" as premis_StorageMedium [[#premis%3AStorageMedium]]

org_FormalOrganization --|> org_Organization #blue;line.dotted;text:blue



prov_Activity : has end date : <i>xsd:dateTime</i> [1..1]
prov_Activity : has generated : <i>IRI</i> [0..1]
prov_Activity : has start date : <i>xsd:dateTime</i> [1..1]

prov_Activity --> org_Organization :was attributed to [1..1]  > 
prov_Activity --> premis_HardwareAgent :was attributed to [1..1]  > 
prov_Activity --> premis_SoftwareAgent :was attributed to [1..1]  > 
prov_Activity --> schema_Person :was attributed to [1..1]  > 


schema_ArchiveComponent --|> schema_CreativeWork #blue;line.dotted;text:blue

schema_ArchiveComponent : description : <i>xsd:string</i> [1..1]
schema_ArchiveComponent : name : <i>xsd:string</i> [1..1]


schema_Collection --|> schema_CreativeWork #blue;line.dotted;text:blue

schema_Collection : collection size : <i>xsd:integer</i> [0..*]
schema_Collection : description : <i>xsd:string</i> [1..1]
schema_Collection : identifier : <i>xsd:string</i> [1..1]
schema_Collection : name : <i>xsd:string</i> [1..1]
schema_Collection --> premis_IntellectualEntity :has part [0..*]  > 




skos_Collection : alternative label : <i>rdf:langString</i> [0..*]
skos_Collection : change note : <i>rdf:langString</i> [0..*]
skos_Collection : definition : <i>rdf:langString</i> [0..*]
skos_Collection : editorial note : <i>rdf:langString</i> [0..*]
skos_Collection : example : <i>rdf:langString</i> [0..*]
skos_Collection : hidden label : <i>rdf:langString</i> [0..*]
skos_Collection : history note : <i>rdf:langString</i> [0..*]
skos_Collection : notation : <i>xsd:string</i> [0..*]
skos_Collection : note : <i>rdf:langString</i> [0..*]
skos_Collection : preferred label : <i>rdf:langString</i> [1..*]
skos_Collection : scope note : <i>rdf:langString</i> [0..*]

skos_Collection --> skos_Collection :member [0..*]  > 
skos_Collection --> skos_Concept :member [0..*]  > 



skos_Concept : alternative label : <i>rdf:langString</i> [0..*]
skos_Concept : change note : <i>rdf:langString</i> [0..*]
skos_Concept : definition : <i>rdf:langString</i> [1..*]
skos_Concept : editorial note : <i>rdf:langString</i> [0..*]
skos_Concept : example : <i>rdf:langString</i> [0..*]
skos_Concept : hidden label : <i>rdf:langString</i> [0..*]
skos_Concept : history note : <i>rdf:langString</i> [0..*]
skos_Concept : notation : <i>xsd:string</i> [0..*]
skos_Concept : note : <i>rdf:langString</i> [0..*]
skos_Concept : preferred label : <i>rdf:langString</i> [1..*]
skos_Concept : scope note : <i>rdf:langString</i> [0..*]

skos_Concept --> skos_Concept :broad match [0..*]  \lbroader [0..*]  \lbroader transitive [0..*]  \lclose match [0..*]  \lexact match [0..*]  \lmapping relation [0..*]  \lnarrow match [0..*]  \lnarrower [0..*]  \lnarrower transitive [0..*]  \lrelated [0..*]  \lrelated match [0..*]  \lsemantic relation [0..*]  > 
skos_Concept --> skos_ConceptScheme :in scheme [1..*]  \ltop concept of [0..*]  > 
skos_Concept --> skosxl_Label :pref label [0..1]  > 



skos_ConceptScheme : alternative label : <i>rdf:langString</i> [0..*]
skos_ConceptScheme : change note : <i>rdf:langString</i> [0..*]
skos_ConceptScheme : editorial note : <i>rdf:langString</i> [0..*]
skos_ConceptScheme : example : <i>rdf:langString</i> [0..*]
skos_ConceptScheme : hidden label : <i>rdf:langString</i> [0..*]
skos_ConceptScheme : history note : <i>rdf:langString</i> [0..*]
skos_ConceptScheme : notation : <i>xsd:string</i> [0..*]
skos_ConceptScheme : note : <i>rdf:langString</i> [0..*]
skos_ConceptScheme : preferred label : <i>rdf:langString</i> [1..*]
skos_ConceptScheme : scope note : <i>rdf:langString</i> [0..*]

skos_ConceptScheme --> skos_Concept :has top concept [0..*]  > 



schema_ContactPoint : contact type : <i>xsd:string</i> [1..1]
schema_ContactPoint : email : <i>xsd:string</i> [0..*]
schema_ContactPoint : telephone : <i>xsd:string</i> [0..*]


haOrg_ContentPartner --|> org_Organization #blue;line.dotted;text:blue

haOrg_ContentPartner : allows bezoekertool : <i>xsd:boolean</i> [1..1]
haOrg_ContentPartner : allows overlay : <i>xsd:boolean</i> [1..1]
haOrg_ContentPartner : has identifier : <i>xsd:string</i> [1..1]
haOrg_ContentPartner --> schema_Person :has account manager [1..1]  > 





schema_CreativeWorkSeries --|> schema_CreativeWork #blue;line.dotted;text:blue

schema_CreativeWorkSeries : description : <i>xsd:string</i> [1..1]
schema_CreativeWorkSeries : identifier : <i>xsd:string</i> [1..1]
schema_CreativeWorkSeries : name : <i>xsd:string</i> [1..1]
schema_CreativeWorkSeries : season number : <i>xsd:integer</i> [0..*]



haObj_DigitalRepresentation --|> premis_Representation #blue;line.dotted;text:blue

haObj_DigitalRepresentation : caption : <i>xsd:string</i> [0..1]
haObj_DigitalRepresentation : date created : <i>edtf:EDTF-level1</i> [1..1]
haObj_DigitalRepresentation : description : <i>xsd:string</i> [1..1]
haObj_DigitalRepresentation : identifier : <i>xsd:string</i> [1..1]
haObj_DigitalRepresentation : name : <i>xsd:string</i> [1..1]
haObj_DigitalRepresentation : transcription : <i>xsd:string</i> [0..1]

haObj_DigitalRepresentation --> haObj_PhysicalRepresentation :has Source [0..*]  > 
haObj_DigitalRepresentation --> premis_File :has Root [0..*]  \lincludes [1..*]  \lmedia fragment source [0..*]  > 
haObj_DigitalRepresentation --> premis_IntellectualEntity :is access copy of [0..1]  \lis archiving master of [1..*]  \lis mezzanine format of [0..1]  \lrepresents [1..*]  > 
haObj_DigitalRepresentation --> schema_Role :author [0..*]  > 


haOrg_DigitizationPartner --|> haOrg_ServiceProvider #blue;line.dotted;text:blue

haOrg_DigitizationPartner : has identifier : <i>xsd:string</i> [1..1]


haOrg_EducationalPartner --|> org_Organization #blue;line.dotted;text:blue

haOrg_EducationalPartner : has identifier : <i>xsd:string</i> [1..1]
haOrg_EducationalPartner --> schema_Person :has account manager [1..1]  > 


schema_Episode --|> schema_CreativeWork #blue;line.dotted;text:blue

schema_Episode : description : <i>xsd:string</i> [1..1]
schema_Episode : identifier : <i>xsd:string</i> [1..1]
schema_Episode : name : <i>xsd:string</i> [1..1]


premis_Event --|> prov_Activity #blue;line.dotted;text:blue

premis_Event : has note : <i>xsd:string</i> [0..1]
premis_Event : has outcome note : <i>xsd:string</i> [0..1]
premis_Event --> org_Organization :implemented by [1..1]  > 
premis_Event --> premis_HardwareAgent :executed by [0..1]  > 
premis_Event --> premis_Object :has source [0..1]  \lresult [0..1]  > 
premis_Event --> premis_OutcomeStatus :has outcome [0..1]  > 
premis_Event --> premis_SoftwareAgent :executed by [0..1]  > 


premis_File --|> premis_Object #blue;line.dotted;text:blue

premis_File : has original name : <i>xsd:string</i> [0..1]
premis_File : has size : <i>xsd:nonNegativeInteger</i> [0..1]
premis_File : mime type : <i>xsd:string</i> [0..1]
premis_File --> dct_FileFormat :format [1..1]  > 
premis_File --> haObj_DigitalRepresentation :has media fragment [0..*]  \lis Included in [1..*]  > 
premis_File --> premis_File :documents [0..*]  \lnext file in sequence [0..1]  \lsupersedes [0..*]  > 
premis_File --> premis_Fixity :has fixity [1..1]  > 
premis_File --> premis_StorageLocation :stored at [1..*]  > 






premis_Fixity : checksum creator : <i>xsd:string</i> [0..*]
premis_Fixity : fixity checksum : <i>xsd:string</i> [1..*]


premis_HardwareAgent --|> premis_Agent #blue;line.dotted;text:blue


premis_IntellectualEntity --|> premis_Object #blue;line.dotted;text:blue

premis_IntellectualEntity : about : <i>IRI</i> [0..*]
premis_IntellectualEntity : abstract : <i>xsd:string</i> [0..1]
premis_IntellectualEntity : alternate name : <i>xsd:string</i> [0..*]
premis_IntellectualEntity : copyright notice : <i>xsd:string</i> [0..*]
premis_IntellectualEntity : copyright year : <i>xsd:integer</i> [0..*]
premis_IntellectualEntity : credit text : <i>xsd:string</i> [0..*]
premis_IntellectualEntity : date available : <i>xsd:dateTime</i> [0..*]
premis_IntellectualEntity : date created : <i>edtf:EDTF-level1</i> [0..1]
premis_IntellectualEntity : date published : <i>edtf:EDTF-level1</i> [0..1]
premis_IntellectualEntity : description : <i>xsd:string</i> [1..1]
premis_IntellectualEntity : duration : <i>xsd:dateTime</i> [0..1]
premis_IntellectualEntity : genre : <i>xsd:string</i> [0..*]
premis_IntellectualEntity : identifier : <i>xsd:string</i> [1..1]
premis_IntellectualEntity : in language : <i>xsd:string</i> [1..*]
premis_IntellectualEntity : keywords : <i>xsd:string</i> [0..*]
premis_IntellectualEntity : name : <i>xsd:string</i> [1..1]
premis_IntellectualEntity : temporal : <i>rdf:langString</i> [0..*]


premis_IntellectualEntity --> haObj_DigitalRepresentation :has access copy [0..*]  \lhas archiving master [0..1]  \lhas mezzanine format [0..1]  > 
premis_IntellectualEntity --> haObj_LocalIdentifier :local identifier [0..*]  > 
premis_IntellectualEntity --> haOrg_ContentPartner :maintainer [1..1]  > 
premis_IntellectualEntity --> org_Organization :copyright holder [0..*]  > 
premis_IntellectualEntity --> premis_IntellectualEntity :has Part [0..*]  \lis Part Of [0..*]  > 
premis_IntellectualEntity --> premis_Representation :is Represented by [0..*]  > 

premis_IntellectualEntity --> schema_ArchiveComponent :is part of [0..*]  > 
premis_IntellectualEntity --> schema_CreativeWorkSeries :is part of [0..*]  > 
premis_IntellectualEntity --> schema_Episode :is part of [0..*]  > 
premis_IntellectualEntity --> schema_Person :copyright holder [0..*]  > 
premis_IntellectualEntity --> schema_Place :spatial [0..*]  > 
premis_IntellectualEntity --> schema_Role :author [0..*]  \lcontributor [0..*]  \lpublisher [0..*]  > 
premis_IntellectualEntity --> skos_Concept :license [0..*]  > 





skosxl_Label : alternative label : <i>rdf:langString</i> [0..*]
skosxl_Label : change note : <i>rdf:langString</i> [0..*]
skosxl_Label : definition : <i>rdf:langString</i> [1..*]
skosxl_Label : editorial note : <i>rdf:langString</i> [0..*]
skosxl_Label : example : <i>rdf:langString</i> [0..*]
skosxl_Label : hidden label : <i>rdf:langString</i> [0..*]
skosxl_Label : history note : <i>rdf:langString</i> [0..*]
skosxl_Label : literal form : <i>rdf:langString</i> [1..1]
skosxl_Label : notation : <i>xsd:string</i> [0..*]
skosxl_Label : note : <i>rdf:langString</i> [0..*]
skosxl_Label : preferred label : <i>rdf:langString</i> [1..*]
skosxl_Label : scope note : <i>rdf:langString</i> [0..*]




rdf_List --> skos_Collection :None [0..*]  > 
rdf_List --> skos_Concept :None [0..*]  > 

haObj_LocalIdentifier --|> skos_Concept #blue;line.dotted;text:blue

haObj_LocalIdentifier : value : <i>xsd:string</i> [1..1]




premis_Object --|> prov_Entity #blue;line.dotted;text:blue

premis_Object --> premis_Event :was generated by [0..1]  > 
premis_Object --> premis_Object :has relationship [0..*]  > 

skos_OrderedCollection --|> skos_Collection #blue;line.dotted;text:blue

skos_OrderedCollection : alternative label : <i>rdf:langString</i> [0..*]
skos_OrderedCollection : change note : <i>rdf:langString</i> [0..*]
skos_OrderedCollection : definition : <i>rdf:langString</i> [0..*]
skos_OrderedCollection : editorial note : <i>rdf:langString</i> [0..*]
skos_OrderedCollection : example : <i>rdf:langString</i> [0..*]
skos_OrderedCollection : hidden label : <i>rdf:langString</i> [0..*]
skos_OrderedCollection : history note : <i>rdf:langString</i> [0..*]
skos_OrderedCollection : notation : <i>xsd:string</i> [0..*]
skos_OrderedCollection : note : <i>rdf:langString</i> [0..*]
skos_OrderedCollection : preferred label : <i>rdf:langString</i> [1..*]
skos_OrderedCollection : scope note : <i>rdf:langString</i> [0..*]




org_Organization : alternative label : <i>rdf:langString</i> [0..*]
org_Organization : description : <i>rdf:langString</i> [0..*]
org_Organization : has identifier : <i>xsd:string</i> [0..1]
org_Organization : homepage : <i>IRI</i> [0..1]
org_Organization : preferred label : <i>rdf:langString</i> [1..*]
org_Organization : sector : <i>xsd:string</i> [0..1]
org_Organization : tenant name : <i>xsd:string</i> [0..*]

org_Organization --> haOrg_Logo :logo [0..*]  > 
org_Organization --> haOrg_OrganizationType :classification [0..*]  > 
org_Organization --> org_OrganizationalUnit :has Unit [0..*]  > 
org_Organization --> org_Post :has post [0..*]  > 
org_Organization --> org_Site :has primary site [0..1]  \lhas site [0..*]  > 

org_Organization --> schema_ContactPoint :contact point [0..*]  > 
org_Organization --> schema_Person :has account manager [0..1]  > 


haOrg_OrganizationType --|> skos_Concept #blue;line.dotted;text:blue


org_OrganizationalUnit --|> org_Organization #blue;line.dotted;text:blue

org_OrganizationalUnit --> org_Organization :unit of [1..*]  > 




schema_Person : birth date : <i>edtf:EDTF-level1</i> [0..1]
schema_Person : death date : <i>edtf:EDTF-level1</i> [0..1]
schema_Person : email : <i>xsd:string</i> [0..*]
schema_Person : family name : <i>xsd:string</i> [1..1]
schema_Person : given name : <i>xsd:string</i> [1..1]
schema_Person : name : <i>xsd:string</i> [0..1]

schema_Person --> org_Organization :is account manager of [0..*]  > 
schema_Person --> org_Post :holds [0..*]  > 


haObj_PhysicalRepresentation --|> premis_Representation #blue;line.dotted;text:blue

haObj_PhysicalRepresentation : art medium : <i>xsd:string</i> [0..*]
haObj_PhysicalRepresentation : artform : <i>xsd:string</i> [0..*]
haObj_PhysicalRepresentation : description : <i>xsd:string</i> [1..1]
haObj_PhysicalRepresentation : format : <i>xsd:string</i> [1..1]
haObj_PhysicalRepresentation : identifier : <i>xsd:string</i> [1..1]
haObj_PhysicalRepresentation : medium : <i>xsd:string</i> [1..*]
haObj_PhysicalRepresentation : name : <i>xsd:string</i> [1..1]
haObj_PhysicalRepresentation --> premis_StorageMedium :has medium [0..*]  > 
haObj_PhysicalRepresentation --> schema_QuantitativeValue :depth [0..*]  \lheight [0..*]  \lwidth [0..*]  > 



schema_Place : description : <i>xsd:string</i> [1..1]
schema_Place : name : <i>xsd:string</i> [1..1]



org_Post --> org_Organization :post in [1..*]  > 
org_Post --> org_Role :role [1..*]  > 

schema_PostalAddress --|> schema_ContactPoint #blue;line.dotted;text:blue

schema_PostalAddress : address : <i>xsd:string</i> [0..1]
schema_PostalAddress : country : <i>xsd:string</i> [0..1]
schema_PostalAddress : locality : <i>xsd:string</i> [0..1]
schema_PostalAddress : post office box number : <i>xsd:string</i> [0..1]
schema_PostalAddress : postal code : <i>xsd:string</i> [0..1]
schema_PostalAddress : region : <i>xsd:string</i> [0..1]
schema_PostalAddress --> schema_Country :country [0..1]  > 


haOrg_ProjectPartner --|> org_Organization #blue;line.dotted;text:blue

haOrg_ProjectPartner : has identifier : <i>xsd:string</i> [1..1]



schema_QuantitativeValue : unit code : <i>xsd:string</i> [0..*]
schema_QuantitativeValue : unit text : <i>xsd:string</i> [0..*]
schema_QuantitativeValue : value : <i>xsd:float</i> [0..*]



premis_Representation --|> premis_Object #blue;line.dotted;text:blue



schema_Role : role name : <i>xsd:string</i> [1..*]
schema_Role --> org_Organization :author [0..*]  \lcontributor [0..*]  \lpublisher [0..*]  > 
schema_Role --> schema_Person :actor [0..*]  \lauthor [0..*]  \lcontributor [0..*]  \lpublisher [0..*]  > 
schema_Role --> skos_Concept :role name [1..*]  > 


org_Role --|> skos_Concept #blue;line.dotted;text:blue

org_Role : preferred label : <i>rdf:langString</i> [1..*]


haOrg_ServiceConsumer --|> org_Organization #blue;line.dotted;text:blue

haOrg_ServiceConsumer : has identifier : <i>xsd:string</i> [1..1]


haOrg_ServiceProvider --|> org_Organization #blue;line.dotted;text:blue

haOrg_ServiceProvider : has identifier : <i>xsd:string</i> [1..1]



org_Site --> org_Organization :site of [1..1]  > 
org_Site --> schema_PostalAddress :site Address [0..1]  > 

premis_SoftwareAgent --|> premis_Agent #blue;line.dotted;text:blue



premis_StorageLocation : file path : <i>xsd:string</i> [1..*]
premis_StorageLocation --> premis_StorageMedium :milieu de stockage [0..*]  \lstorage medium [0..*]  > 





hide circle
hide methods
hide empty members
@enduml


